<?xml version="1.0" encoding="utf-8"?>
<!-- Generator: Adobe Illustrator 26.1.0, SVG Export Plug-In . SVG Version: 6.00 Build 0)  -->
<svg version="1.1" id="Layer_1" xmlns="http://www.w3.org/2000/svg" xmlns:xlink="http://www.w3.org/1999/xlink" x="0px" y="0px"
	 viewBox="0 0 1920 1080" enable-background="new 0 0 1920 1080" xml:space="preserve">
<g>
	<g>
		<g>
			<g>
				<g>
					<path fill="#272B64" d="M938.068,1072.305c-22.053,0-44.407-1.404-66.44-4.175c-101.451-12.756-196.19-54.205-273.974-119.867
						c-75.774-63.965-131.886-147.544-162.269-241.7l-0.644-1.997l88.206,11.091l0.302,0.7
						c72.641,168.415,221.974,282.285,399.467,304.601c20.561,2.586,41.428,3.896,62.02,3.896
						c144.004,0,282.441-63.828,379.816-175.118l2.091,1.656C1267.698,989.72,1107.482,1072.305,938.068,1072.305z"/>
					<path fill="#FFFFFF" d="M436.656,706.153l85.367,10.733c69.734,161.676,217.439,282.376,400.527,305.396
						c20.888,2.626,41.643,3.906,62.185,3.906c148.415,0,285.669-66.823,380.823-175.575
						c-96.55,134.98-254.388,220.355-427.489,220.355c-21.873,0-44.008-1.365-66.274-4.165
						C662.454,1040.484,497.436,894.509,436.656,706.153 M432.826,702.979l1.289,3.993c30.46,94.394,86.713,178.184,162.678,242.31
						c77.982,65.829,172.961,107.384,274.669,120.172c22.088,2.777,44.498,4.185,66.607,4.185c42.784,0,85.475-5.224,126.89-15.528
						c40.441-10.062,79.738-24.978,116.798-44.336c36.659-19.148,71.1-42.622,102.367-69.771
						c31.372-27.239,59.501-58.138,83.606-91.838l-4.182-3.312c-97.121,111.001-235.193,174.663-378.813,174.663
						c-20.536,0-41.346-1.307-61.852-3.886c-177.019-22.257-325.956-135.829-398.408-303.804l-0.605-1.402l-1.515-0.19
						l-85.367-10.733L432.826,702.979L432.826,702.979z"/>
				</g>
			</g>
		</g>
		<g>
			<g>
				<g>
					<path fill="#272B64" d="M1418.968,395.429l-0.329-0.689c-79.029-165.512-232.608-273.587-410.826-289.099
						c-14.35-1.249-28.893-1.882-43.226-1.882c-151.263,0-294.046,69.208-391.738,189.879l-2.153-1.575
						c47.275-71.74,112.146-131.521,187.599-172.878c77.167-42.296,164.46-64.653,252.445-64.653c15.356,0,30.94,0.679,46.321,2.017
						c101.864,8.866,198.119,46.662,278.357,109.301c78.165,61.02,137.433,142.391,171.395,235.316l0.721,1.971L1418.968,395.429z"
						/>
					<path fill="#FFFFFF" d="M1010.739,55.868c15.281,0,30.696,0.662,46.205,2.012c210.194,18.295,380.674,157.851,448.614,343.745
						l-85.715-7.46c-75.867-158.891-228.08-273.853-411.915-289.854c-14.551-1.266-28.994-1.888-43.342-1.887
						c-155.748,0.006-297.998,73.302-392.776,190.374C666.662,148.861,829.651,55.866,1010.739,55.868 M1010.739,53.197
						c-44.707,0-89.223,5.674-132.312,16.864c-41.981,10.903-82.615,27.036-120.775,47.952
						c-75.643,41.462-140.677,101.393-188.072,173.315l4.306,3.15c97.432-120.35,239.837-189.378,390.701-189.384
						c14.3,0,28.798,0.632,43.11,1.877c177.741,15.47,330.913,123.263,409.736,288.344l0.658,1.378l1.521,0.132l85.715,7.46
						l4.181,0.364l-1.44-3.941c-34.048-93.16-93.464-174.737-171.827-235.911C1255.798,102,1159.299,64.108,1057.176,55.219
						C1041.759,53.878,1026.136,53.197,1010.739,53.197L1010.739,53.197z"/>
				</g>
			</g>
		</g>
		<g>
			<g>
				<g>
					<path fill="#74BB44" d="M979.706,781.468l1.221-0.104c30.931-2.665,40.302-4.749,42.717-6.028
						c2.1-1.146,3.604-2.939,4.581-5.475c2.105-5.061,3.602-22.615,4.461-52.21c1.077-46.245,1.624-83.087,1.624-109.493
						c0-35.646-0.438-81.786-1.3-137.137c-0.861-41.046-2.914-66.497-6.101-75.637c-0.789-2.554-2.293-4.432-4.612-5.785
						c-2.296-1.432-11.307-3.784-41.396-6.976l-1.194-0.127v-29.884l1.38,0.047c44.592,1.508,73.774,2.272,86.736,2.272
						l162.815-2.273c35.351,0,61.497,3.475,77.73,10.328c16.324,6.89,29.434,18.095,38.964,33.303
						c9.518,15.183,14.343,33.272,14.343,53.768c0,26.138-7.692,49.396-22.865,69.128c-14.932,19.412-41.014,36.865-77.537,51.891
						l68.328,102.973l53.947,79.945c9.97,12.724,17.485,20.534,22.282,23.14c4.768,2.593,12.763,4.015,23.765,4.227l1.31,0.025
						v27.647l-20.49,0.347c-54.739,0.43-90.477,1.086-106.229,1.95l-0.787,0.044l-0.418-0.668
						c-18.815-30.059-47.242-74.12-84.49-130.962l-67.388-102.391l0.37-0.698c1.903-3.592,3.512-7.453,4.782-11.478l0.335-1.062
						l1.104,0.139c8.527,1.071,14.924,1.614,19.011,1.614c19.737,0,39.461-8.112,58.623-24.11
						c19.09-15.939,28.771-39.039,28.771-68.658c0-25.756-7.642-46.025-22.711-60.243c-15.094-14.234-38.136-21.451-68.486-21.451
						c-9.431,0-22.359,0.727-38.441,2.161l-2.106,94.769l-2.743,121.662c0,27.383,1.088,62.928,3.234,105.619
						c2.124,39.862,3.923,51.286,5.058,53.85c1.146,2.507,3.33,4.59,6.488,6.178c4.385,2.522,18.977,4.434,43.436,5.717l1.265,0.066
						v29.958l-1.387-0.055c-38.668-1.51-73.479-2.275-103.469-2.275c-31.919,0-66.619,0.766-103.138,2.275l-1.391,0.058V781.468z"/>
				</g>
				<g>
					<path fill="#FFFFFF" d="M1230.656,353.992c35.315,0,61.048,3.408,77.192,10.223c16.14,6.812,28.927,17.741,38.352,32.781
						c9.425,15.036,14.139,32.723,14.139,53.059c0,25.962-7.531,48.732-22.588,68.314c-15.063,19.582-41.227,36.942-78.493,52.086
						l69.229,104.33l53.954,79.953c10.182,13.001,17.763,20.857,22.75,23.566c4.982,2.709,13.107,4.172,24.377,4.388v25.025
						l-19.177,0.324c-55.04,0.432-90.467,1.084-106.281,1.952c-18.851-30.115-47.021-73.783-84.505-130.984l-66.954-101.733
						c1.951-3.682,3.575-7.579,4.876-11.7c8.664,1.088,15.058,1.625,19.177,1.625c20.15,0,39.977-8.138,59.478-24.42
						c19.501-16.283,29.251-39.507,29.251-69.683c0-26.264-7.713-46.668-23.13-61.214c-15.423-14.546-38.556-21.816-69.402-21.816
						c-9.777,0-23.026,0.76-39.75,2.273l-2.133,95.962l-2.743,121.661c0,27.54,1.077,62.778,3.235,105.717
						c1.722,32.313,3.444,50.422,5.171,54.323c1.29,2.824,3.662,5.097,7.109,6.83c4.525,2.604,19.182,4.557,43.964,5.857v27.302
						c-38.941-1.52-73.449-2.277-103.52-2.277c-32.019,0-66.414,0.756-103.194,2.277v-27.302
						c25.133-2.165,39.541-4.226,43.228-6.178c2.383-1.3,4.114-3.354,5.202-6.174c2.163-5.198,3.682-22.752,4.55-52.651
						c1.081-46.369,1.625-82.882,1.625-109.532c0-35.966-0.436-81.686-1.3-137.158c-0.868-41.383-2.925-66.737-6.174-76.056
						c-0.868-2.813-2.601-4.982-5.2-6.499c-3.469-2.165-17.446-4.553-41.929-7.151v-27.302c44.854,1.517,73.781,2.273,86.782,2.273
						L1230.656,353.992 M978.37,351.23v2.763v27.302v2.402l2.389,0.253c31.411,3.332,39.043,5.666,40.797,6.761l0.034,0.021
						l0.034,0.02c2.017,1.177,3.323,2.806,3.994,4.979l0.014,0.046l0.016,0.046c3.14,9.007,5.168,34.319,6.026,75.232
						c0.862,55.342,1.3,101.474,1.3,137.102c0,26.403-0.546,63.234-1.624,109.47c-1.064,36.644-2.95,48.335-4.346,51.688
						l-0.013,0.032l-0.013,0.033c-0.859,2.228-2.164,3.795-3.989,4.791c-1.859,0.984-9.853,3.077-42.178,5.861l-2.442,0.21v2.451
						v27.302v2.783l2.781-0.115c36.513-1.509,71.195-2.274,103.083-2.274c29.959,0,64.753,0.765,103.416,2.274l2.775,0.108v-2.777
						v-27.302v-2.534l-2.531-0.133c-30.2-1.585-39.929-3.868-42.772-5.505l-0.065-0.038l-0.068-0.034
						c-2.92-1.468-4.843-3.284-5.879-5.553c-0.88-1.987-2.709-11.602-4.934-53.356c-2.143-42.646-3.23-78.159-3.231-105.545
						l2.742-121.631l2.079-93.574c15.489-1.361,27.973-2.05,37.133-2.05c29.999,0,52.733,7.095,67.57,21.088
						c14.792,13.956,22.292,33.897,22.292,59.271c0,29.204-9.519,51.959-28.292,67.633c-18.914,15.792-38.349,23.799-57.766,23.799
						c-4.029,0-10.369-0.54-18.844-1.604l-2.21-0.277l-0.67,2.124c-1.245,3.945-2.822,7.731-4.689,11.254l-0.74,1.398l0.87,1.321
						l66.954,101.733c37.252,56.847,65.673,100.9,84.472,130.933l0.836,1.336l1.574-0.086c15.724-0.863,51.44-1.519,106.156-1.949
						l19.201-0.324l2.626-0.044v-2.626v-25.025v-2.62l-2.62-0.05c-10.784-0.207-18.574-1.574-23.152-4.064
						c-4.627-2.513-11.983-10.181-21.865-22.792l-53.901-79.875l-67.42-101.604c35.961-14.977,61.716-32.358,76.586-51.69
						c15.356-19.97,23.142-43.502,23.142-69.943c0-20.75-4.894-39.078-14.547-54.477c-9.68-15.445-22.995-26.825-39.576-33.823
						c-16.398-6.923-42.719-10.434-78.231-10.434h-0.019l-0.019,0l-162.834,2.273c-12.907,0-42.074-0.764-86.654-2.272
						L978.37,351.23L978.37,351.23z"/>
				</g>
			</g>
			<g>
				<g>
					<path fill="#272B64" d="M473.017,817.18l-0.35-0.801c-16.214-37.146-38.211-84.707-65.38-141.365L297.254,449.096v38.373
						c0,121.725,0.546,206.606,1.624,252.289c0.635,18.188,3.018,29.478,7.083,33.54c2.796,2.799,13.313,6.469,47.546,8.062
						l1.273,0.06v30.007l-1.427-0.099c-21.88-1.508-44.11-2.273-66.074-2.273c-32.736,0-62.281,0.766-87.814,2.274l-1.414,0.084
						v-29.968l20.635-1.384c15.292-0.841,24.926-3.423,28.651-7.675c2.579-2.946,5.82-13.198,6.617-45.306
						c1.509-53.277,2.274-111.713,2.274-173.688c0-32.968-0.164-70.983-0.486-112.991c-0.322-25.231-1.757-40.78-4.265-46.208
						c-1.163-2.516-3.362-4.597-6.536-6.185c-2.262-1.13-12.018-2.981-45.65-5.381l-1.24-0.088v-29.914l1.369,0.034
						c26.045,0.645,51.914,0.972,76.889,0.972c29.062,0,57.442-0.327,84.352-0.972l0.906-0.021l0.354,0.833
						c11.593,27.249,23.84,54.77,36.4,81.801c8.784,19.052,48.088,100.713,116.838,242.753
						c72.786-146.188,124.479-255.368,153.667-324.55l0.36-0.854l0.926,0.039c25.779,1.077,50.633,1.623,73.871,1.623
						c27.326,0,54.035-0.546,79.385-1.623l1.392-0.059v29.951l-1.254,0.077c-34.823,2.13-44.943,5.06-47.301,7.143
						c-2.333,2.056-5.389,8.752-6.702,28.984c-1.507,27.077-2.272,79.383-2.272,155.451c0,38.589,0.382,79.659,1.136,122.07
						c0.752,42.506,2.198,66.826,4.298,72.285c1.362,2.914,3.377,5.235,5.953,6.816c1.798,1.112,11.048,3.051,44.921,5.986
						l1.22,0.105v29.921l-1.393-0.061c-34.853-1.51-66.437-2.275-93.875-2.275c-27.684,0-65.724,0.766-113.063,2.276l-1.378,0.044
						v-29.972l20.465-0.696c14.751-0.631,24.031-2.641,27.57-5.974c3.518-3.321,5.838-12.54,6.896-27.4
						c1.076-15.205,1.621-51.507,1.621-107.896v-190.46c-32.872,66.004-75.024,152.837-125.345,258.214
						c-21.164,44.443-37.906,81.176-49.763,109.175l-0.345,0.814H473.017z"/>
				</g>
				<g>
					<path fill="#FFFFFF" d="M823.426,353.992v27.302c-28.39,1.736-44.422,4.222-48.103,7.475
						c-3.687,3.249-6.068,13.217-7.151,29.899c-1.518,27.277-2.275,79.125-2.275,155.537c0,38.538,0.375,79.229,1.137,122.093
						c0.758,42.86,2.221,67.111,4.388,72.741c1.515,3.249,3.683,5.746,6.5,7.475c2.813,1.74,17.983,3.793,45.504,6.178v27.302
						c-35.103-1.52-66.416-2.277-93.932-2.277c-27.738,0-65.44,0.756-113.106,2.277v-27.302l19.175-0.652
						c15.164-0.648,24.645-2.763,28.44-6.336c3.788-3.577,6.225-13.001,7.313-28.278c1.081-15.274,1.625-51.272,1.625-107.99
						V443.304c-33.411,66.971-76.039,154.741-127.886,263.311c-21.263,44.651-37.859,81.059-49.788,109.229h-21.376
						c-16.272-37.277-38.068-84.409-65.4-141.409L295.919,443.304v44.164c0,122.104,0.537,206.208,1.625,252.321
						c0.65,18.638,3.138,30.119,7.475,34.453c4.332,4.337,20.477,7.151,48.428,8.451v27.302c-22.055-1.52-44.11-2.277-66.166-2.277
						c-32.868,0-62.165,0.756-87.893,2.277v-27.302l19.389-1.3c15.722-0.865,25.58-3.577,29.566-8.127
						c3.982-4.55,6.297-19.932,6.947-46.153c1.515-53.466,2.275-111.373,2.275-173.722c0-33.123-0.162-70.789-0.486-113.001
						c-0.326-25.544-1.789-41.131-4.388-46.758c-1.3-2.813-3.687-5.086-7.151-6.819c-3.469-1.733-18.851-3.57-46.153-5.519v-27.302
						c26.18,0.648,51.819,0.973,76.922,0.973c29.208,0,57.336-0.324,84.384-0.973c11.7,27.5,23.844,54.78,36.418,81.841
						c8.887,19.276,48.23,101.012,118.032,245.22c73.77-148.106,125.407-257.123,154.914-327.062
						c25.94,1.084,50.58,1.625,73.927,1.625C771.437,355.617,797.916,355.076,823.426,353.992 M826.097,351.205l-2.784,0.118
						c-25.325,1.076-52.015,1.622-79.328,1.622c-23.227,0-48.062-0.546-73.815-1.622l-1.852-0.077l-0.721,1.708
						c-29.016,68.777-80.29,177.109-152.419,322.04c-68.015-140.527-106.915-221.354-115.64-240.278
						c-12.556-27.022-24.797-54.53-36.385-81.768l-0.71-1.668l-1.812,0.043c-26.899,0.645-55.269,0.972-84.32,0.972
						c-24.963,0-50.822-0.327-76.856-0.972l-2.737-0.068v2.738v27.302v2.487l2.481,0.177c35.176,2.511,43.386,4.363,45.15,5.244
						c2.935,1.469,4.872,3.284,5.92,5.551c1.669,3.614,3.743,14.472,4.142,45.672c0.322,42.001,0.486,80.014,0.486,112.967
						c0,61.97-0.765,120.393-2.274,173.646c-0.828,33.39-4.294,42.193-6.287,44.47c-2.391,2.729-9.139,6.198-27.703,7.219
						l-19.422,1.302l-2.492,0.167v2.498v27.302v2.833l2.828-0.167c25.514-1.508,55.033-2.272,87.735-2.272
						c21.926,0,44.126,0.764,65.982,2.27l2.854,0.197v-2.861v-27.302v-2.549l-2.547-0.118c-35.588-1.656-44.511-5.517-46.662-7.671
						c-2.627-2.625-5.92-10.42-6.695-32.658c-1.077-45.644-1.623-130.516-1.623-252.228v-32.582L406.09,675.606
						c27.155,56.629,49.145,104.177,65.354,141.308l0.699,1.602h1.748h21.376h1.769l0.69-1.629
						c11.854-27.993,28.589-64.708,49.74-109.123c49.027-102.667,90.305-187.743,122.804-253.106v184.778
						c0,56.359-0.544,92.628-1.618,107.802c-1.287,18.079-4.236,24.403-6.482,26.525c-2.266,2.133-8.743,4.841-26.721,5.61
						l-19.152,0.651l-2.58,0.088v2.581v27.302v2.757l2.756-0.088c47.339-1.51,85.364-2.275,113.02-2.275
						c27.408,0,58.972,0.765,93.817,2.274l2.786,0.121v-2.789v-27.302v-2.449l-2.44-0.211c-36.682-3.179-43.221-5.107-44.33-5.789
						c-2.365-1.452-4.144-3.493-5.443-6.244c-1.402-3.796-3.252-19.379-4.179-71.748c-0.754-42.41-1.136-83.473-1.136-122.046
						c0-76.042,0.764-128.322,2.271-155.389c1.35-20.794,4.495-26.497,6.25-28.044c1.804-1.594,10.24-4.595,46.501-6.813
						l2.508-0.153v-2.512v-27.302V351.205L826.097,351.205z"/>
				</g>
			</g>
			<g>
				<g>
					<path fill="#02AE9F" d="M699.562,779.149l1.265-0.067c20.039-1.062,32.507-3.069,37.058-5.967
						c2.058-1.371,6.317-6.69,14.792-24.157c13.137-28.005,30.187-67.462,50.669-117.26L918.739,349.08h49.562l147.252,349.889
						c18.896,43.658,30.658,67.867,34.953,71.941c2.881,2.735,12.207,6.373,40.282,8.173l1.249,0.08v32.227l-1.393-0.061
						c-35.053-1.51-68.7-2.275-100.007-2.275c-37.34,0-73.283,0.766-106.832,2.275l-1.395,0.062v-32.258l1.28-0.052
						c31.726-1.298,41.539-2.984,44.185-4.171c3.514-1.577,5.223-4.346,5.223-8.465c0-2.637-2.353-11.854-13.556-40.789
						l-21.112-53.459c-26.552-0.631-56.564-0.951-89.226-0.951c-28.353,0-54.534,0.319-77.834,0.948l-13.964,35.685
						c-3.86,9.854-8.653,24.769-14.245,44.334c-1.261,4.306-1.899,8.237-1.899,11.693c0,4.347,1.822,7.328,5.572,9.115
						c4.066,1.936,19.264,3.976,45.172,6.062l1.228,0.099v32.246l-1.431-0.103c-21.055-1.508-47.685-2.273-79.148-2.273
						c-29.944,0-54.048,0.765-71.644,2.271l-1.45,0.125V779.149z M847.488,630.973c19.312,1.014,40.852,1.527,64.06,1.527
						c24.353,0,47.969-0.518,70.225-1.539l-67.621-162.41L847.488,630.973z"/>
				</g>
				<g>
					<path fill="#FFFFFF" d="M967.416,350.415l146.908,349.072c19.065,44.049,30.822,68.177,35.265,72.392
						c4.438,4.215,18.145,7.064,41.115,8.537v29.579c-35.305-1.52-68.66-2.277-100.065-2.277c-37.469,0-73.1,0.756-106.892,2.277
						v-29.579c25.778-1.055,40.668-2.489,44.676-4.287c4.006-1.798,6.012-5.022,6.012-9.683c0-4.024-4.55-17.781-13.646-41.272
						l-21.441-54.291c-26.906-0.648-56.949-0.973-90.143-0.973c-28.855,0-55.11,0.324-78.756,0.973l-14.287,36.509
						c-3.899,9.953-8.658,24.766-14.285,44.453c-1.3,4.442-1.951,8.465-1.951,12.061c0,4.87,2.107,8.307,6.333,10.321
						c4.22,2.01,19.436,4.078,45.64,6.189v29.579c-21.227-1.52-47.644-2.277-79.244-2.277c-30.088,0-54.008,0.756-71.758,2.277
						v-29.579c20.366-1.081,32.934-3.138,37.704-6.174c3.249-2.165,8.338-10.4,15.276-24.701
						c13.213-28.167,30.115-67.281,50.703-117.335l115.056-281.791H967.416 M911.547,633.834c25.148,0,49.209-0.54,72.19-1.628
						l-69.595-167.151l-68.604,167.151C865.481,633.294,887.485,633.834,911.547,633.834 M969.189,347.744h-1.774h-47.779h-1.794
						l-0.678,1.661L802.107,631.197c-20.472,49.773-37.513,89.211-50.648,117.21c-8.727,17.989-12.711,22.511-14.317,23.598
						c-3.015,1.904-11.78,4.439-36.386,5.745l-2.529,0.134v2.533v29.579v2.909l2.899-0.248c17.564-1.504,41.63-2.267,71.53-2.267
						c31.425,0,58.022,0.764,79.053,2.27l2.862,0.205v-2.869v-29.579v-2.464l-2.456-0.198c-32.07-2.584-42.013-4.655-44.706-5.938
						c-3.282-1.564-4.811-4.077-4.811-7.909c0-3.328,0.62-7.133,1.843-11.31c5.585-19.54,10.364-34.416,14.208-44.229l13.642-34.862
						c23.066-0.613,48.932-0.924,76.914-0.924c32.288,0,61.987,0.313,88.309,0.93l20.791,52.644
						c11.71,30.241,13.459,38.225,13.459,40.291c0,3.586-1.409,5.889-4.435,7.246c-2.536,1.138-12.175,2.764-43.692,4.055
						l-2.561,0.105v2.564v29.579v2.794l2.791-0.126c33.54-1.509,69.463-2.274,106.772-2.274c31.277,0,64.905,0.765,99.95,2.274
						l2.786,0.12v-2.788v-29.579v-2.505l-2.5-0.16c-27.676-1.775-36.728-5.226-39.447-7.809
						c-2.864-2.716-11.199-17.328-34.653-71.516L969.877,349.379L969.189,347.744L969.189,347.744z M849.439,629.736l64.721-157.691
						l65.646,157.667c-21.668,0.963-44.611,1.451-68.259,1.451C889.106,631.164,868.235,630.684,849.439,629.736L849.439,629.736z"
						/>
				</g>
			</g>
			<g>
				<g>
					<path fill="#272B64" d="M1636.689,817.828c-56.727,0-105.374-10.109-144.59-30.047c-39.268-19.956-69.907-48.451-91.065-84.696
						c-21.148-36.224-31.871-78.332-31.871-125.155c0-67.463,24.26-123.512,72.107-166.59
						c47.813-43.039,114.654-64.861,198.668-64.861c27.879,0,55.898,2.523,83.282,7.5c27.356,4.977,54.937,12.652,81.975,22.812
						l0.51,0.192l2.732,5.858l-0.174,0.509c-3.943,11.562-6.72,22.853-8.25,33.559c-2.862,18.731-5.092,42.309-6.632,70.09
						l-0.069,1.262h-29.852l-0.048-1.285c-1.604-42.253-2.958-53.753-3.812-55.959c-0.829-2.142-4.525-6.769-17.424-16.648
						c-10.413-7.98-24.733-14.576-42.563-19.602c-17.876-5.034-37.907-7.586-59.537-7.586c-51.323,0-92.67,16.045-122.893,47.688
						c-30.238,31.664-45.571,76.407-45.571,132.987c0,61.329,18.466,111.647,54.883,149.559
						c33.592,35.098,80.397,52.894,139.12,52.894c22.765,0,44.366-2.395,64.206-7.115c19.835-4.713,42.104-13.099,66.188-24.925
						l0.82-0.403l9.552,8.786l-0.472,0.907c-5.579,10.722-10.589,21.83-14.891,33.015l-0.18,0.469l-0.445,0.233
						c-25.128,13.213-49.674,22.711-72.956,28.231C1694.153,815.028,1666.984,817.828,1636.689,817.828z"/>
				</g>
				<path fill="#FFFFFF" d="M1639.939,347.814c27.952,0,55.63,2.496,83.042,7.478c27.408,4.986,54.654,12.568,81.744,22.749
					l2.275,4.878c-3.991,11.7-6.76,22.968-8.309,33.801c-2.88,18.851-5.094,42.252-6.643,70.206h-27.302
					c-1.299-34.236-2.599-53.03-3.899-56.391c-1.301-3.357-7.251-9.103-17.857-17.226c-10.604-8.127-24.944-14.733-43.014-19.827
					c-18.075-5.09-38.042-7.637-59.899-7.637c-51.949,0-93.235,16.038-123.859,48.102c-30.629,32.071-45.94,76.704-45.94,133.909
					c0,61.971,18.415,112.133,55.254,150.483c34.015,35.54,80.712,53.303,140.083,53.303c22.965,0,44.472-2.381,64.516-7.151
					c20.04-4.762,42.198-13.109,66.466-25.025l8.127,7.475c-5.638,10.836-10.62,21.888-14.951,33.152
					c-25.139,13.217-49.352,22.59-72.642,28.112c-23.294,5.526-50.108,8.289-80.442,8.289c-56.773,0-104.768-9.964-143.985-29.903
					c-39.22-19.932-69.391-47.99-90.517-84.179c-21.126-36.185-31.69-77.68-31.69-124.482c0-67.385,23.889-122.583,71.666-165.599
					C1489.944,369.324,1555.866,347.814,1639.939,347.814 M1639.939,345.143c-42.12,0-80.248,5.471-113.326,16.262
					c-33.164,10.819-62.178,27.285-86.236,48.941c-24.065,21.666-42.372,46.76-54.414,74.585
					c-12.034,27.807-18.136,59.097-18.136,92.999c0,47.062,10.785,89.397,32.054,125.828c21.289,36.469,52.113,65.139,91.614,85.213
					c39.404,20.034,88.255,30.193,145.195,30.193c30.399,0,57.671-2.813,81.058-8.361c23.389-5.546,48.04-15.083,73.269-28.347
					l0.889-0.468l0.361-0.938c4.282-11.136,9.271-22.198,14.828-32.878l0.944-1.814l-1.505-1.384l-8.127-7.475l-1.345-1.237
					l-1.64,0.805c-23.994,11.781-46.168,20.133-65.907,24.824c-19.738,4.697-41.236,7.078-63.898,7.078
					c-58.344,0-104.826-17.657-138.154-52.479c-36.173-37.657-54.513-87.665-54.513-148.637c0-56.225,15.208-100.658,45.201-132.064
					c29.96-31.37,70.982-47.276,121.927-47.276c21.507,0,41.417,2.536,59.175,7.537c17.666,4.98,31.835,11.499,42.113,19.376
					c13.319,10.202,16.362,14.448,16.991,16.071c0.668,1.728,2.041,11.24,3.721,55.527l0.097,2.57h2.571h27.302h2.527l0.14-2.523
					c1.537-27.743,3.763-51.277,6.616-69.95c1.523-10.65,4.279-21.86,8.196-33.342l0.347-1.017l-0.454-0.974l-2.275-4.878
					l-0.461-0.988l-1.02-0.383c-27.114-10.189-54.772-17.886-82.205-22.876C1695.998,347.674,1667.898,345.143,1639.939,345.143
					L1639.939,345.143z"/>
			</g>
		</g>
		<g>
			<path fill="#71BB44" d="M336.19,938.52c-72.238,0-128.958-13.743-168.584-40.849c-31.901-21.821-43.757-46.394-48.819-56.886
				c-0.413-0.855-0.781-1.618-1.112-2.28c-4.516-9.033-6.636-39.734,6.905-83.664c11.26-36.533,36.817-92.743,94.629-153.069
				l2.047,1.706c-0.227,0.312-22.828,31.814-39.311,71.965c-15.139,36.877-28.075,88.812-3.73,126.812
				c29.665,46.307,93.026,68.816,193.704,68.816c21.484,0,44.274-0.971,71.722-3.056c50.358-3.824,181.864-30.449,337.755-88.125
				c139.781-51.715,346.841-146.231,539.473-302.823c80.579-65.502,137.888-126.766,170.335-182.089
				c28.131-47.963,36.714-91.016,24.819-124.503c-15.734-44.3-67.678-70.749-138.948-70.749c-35.041,0-73.774,6.459-112.014,18.68
				l-0.904-2.511c0.92-0.371,93.026-37.022,178.931-37.022c49.012,0,86.83,11.756,112.404,34.943
				c26.055,23.624,38.176,54.503,36.027,91.781c-2.813,48.798-29.748,105.188-80.058,167.604
				c-54.976,68.206-135.793,140.691-240.207,215.442c-73.731,52.784-152.768,101.359-234.915,144.375
				c-75.754,39.668-154.459,74.791-233.928,104.393c-142.049,52.912-287.167,87.884-408.623,98.472
				C373.726,937.633,354.347,938.52,336.19,938.52z"/>
			<path fill="#FFFFFF" d="M1443.086,80.208c42.09,0,82.952,8.708,111.506,34.597c87.331,79.18,23.288,252.678-284.117,472.753
				S620.732,914.759,393.671,934.554c-20.677,1.803-39.812,2.631-57.481,2.631c-176.359,0-208.854-82.343-217.321-99.277
				c-9.315-18.631-5.822-123.428,101.304-235.212c0,0-90.824,125.757-43.083,200.279c36.106,56.36,117.507,69.431,194.828,69.431
				c24.917,0,49.404-1.357,71.823-3.059c91.989-6.986,517-97.811,877.969-391.243c297.958-242.211,219.034-379.696,55.364-379.712
				c-34.612-0.003-72.988,6.141-112.42,18.743C1264.653,117.134,1356.446,80.208,1443.086,80.208 M1443.086,77.537
				c-45.052,0-91.434,10.092-122.411,18.558c-33.539,9.166-56.788,18.469-57.019,18.562l1.81,5.022
				c38.109-12.179,76.692-18.617,111.578-18.617c70.712,0.007,122.186,26.127,137.72,69.871
				c11.756,33.103,3.209,75.766-24.717,123.376c-32.367,55.182-89.571,116.322-170.023,181.722
				c-192.49,156.476-399.408,250.926-539.094,302.607c-155.762,57.628-287.11,84.227-337.393,88.046
				c-27.412,2.082-50.17,3.052-71.62,3.052c-100.187,0-163.18-22.309-192.58-68.201c-24.027-37.506-11.183-88.97,3.823-125.538
				c16.419-40.013,38.952-71.425,39.177-71.738l-4.093-3.411c-57.993,60.514-83.639,116.929-94.942,153.599
				c-7.476,24.255-9.71,42.992-10.268,54.438c-0.658,13.509,0.597,24.522,3.444,30.216c0.329,0.657,0.694,1.415,1.103,2.263
				c5.109,10.589,17.073,35.386,49.268,57.408c39.853,27.26,96.826,41.082,169.338,41.082c18.196,0,37.613-0.889,57.713-2.641
				c58.753-5.122,122.659-15.782,189.945-31.683c71.719-16.949,145.411-39.447,219.028-66.868
				c79.521-29.621,158.277-64.767,234.081-104.461c82.202-43.044,161.292-91.652,235.073-144.473
				c104.513-74.822,185.418-147.39,240.47-215.69c25.448-31.573,45.193-62.126,58.685-90.813
				c13.003-27.647,20.293-53.739,21.665-77.553c1.084-18.795-1.522-36.268-7.744-51.934c-6.125-15.423-15.788-29.188-28.72-40.913
				C1530.56,89.411,1492.44,77.537,1443.086,77.537L1443.086,77.537z"/>
		</g>
		<g>
			<g>
				<path fill="#E2A32C" d="M565.794,142.614c-2.996,0-6.291-0.136-10.073-0.416c-0.226-0.017-22.856-2.529-24.021-5.946
					l-0.026-0.076l-0.165-62.016l0.595,0.137c1.349,0.31,2.62,0.466,3.778,0.466c6.729,0,9.28-5.132,11.98-10.565
					c2.049-4.123,4.168-8.386,8.292-9.982c3.218-1.246,6.479-1.852,9.97-1.852c7.367,0,14.522,2.786,21.442,5.48
					c3.682,1.433,7.489,2.916,11.256,3.944c8.661,2.366,18.716,4.257,27.587,5.189c21.079,2.216,42.648,2.402,62.933,2.402
					c2.743,0,13.679-0.015,16.403-0.015c6.012,0,10.625,0.019,14.955,0.062l0.521,0.005l-0.042,0.52
					C719.863,86,705.367,93.31,692.455,93.31c-2.636,0-5.254-0.291-7.792-0.866c-0.56,15.084-11.663,17.183-23.607,17.183
					c-2.008,0-4.059-0.056-6.042-0.109l-0.753-0.02c-2.906,12.995-12.622,20.738-26.066,20.739c-7.635,0-15.521-2.538-22.261-7.157
					C596.22,136.947,584.553,142.614,565.794,142.614z"/>
				<path fill="#FFFFFF" d="M566.124,52.849c11.189,0,21.729,6.446,32.57,9.407c8.668,2.367,18.738,4.266,27.664,5.204
					c20.731,2.179,41.913,2.404,62.989,2.404c5.479,0,10.948-0.015,16.404-0.015c4.999,0,9.982,0.013,14.945,0.062
					c-1.221,14.893-14.524,22.914-28.24,22.914c-2.769,0-5.554-0.327-8.261-0.99c-0.281,15.381-11.283,17.307-23.138,17.307
					c-2.387,0-4.807-0.078-7.183-0.14c-3.04,14.386-13.803,20.75-25.677,20.75c-7.581,0-15.614-2.592-22.383-7.347
					c-10.754,15.583-23.529,19.724-40.019,19.724c-3.202,0-6.543-0.156-10.037-0.415c-3.566-0.264-22.694-2.969-23.597-5.619
					l-0.164-61.325c1.427,0.327,2.717,0.478,3.886,0.478c12.432,0,11.36-17.062,20.448-20.58
					C559.662,53.378,562.92,52.849,566.124,52.849 M566.125,51.878c-3.552,0-6.87,0.616-10.145,1.884
					c-4.3,1.665-6.461,6.014-8.551,10.219c-2.632,5.295-5.117,10.295-11.546,10.295c-1.121,0-2.356-0.153-3.669-0.454l-1.191-0.273
					l0.003,1.222l0.164,61.325l0,0.16l0.052,0.151c0.248,0.729,0.766,2.246,11.533,4.344c5.193,1.012,10.931,1.783,12.911,1.93
					c3.794,0.281,7.101,0.417,10.109,0.417c18.762,0,30.5-5.62,40.263-19.35c6.731,4.503,14.556,6.974,22.139,6.974
					c13.553,0,23.386-7.73,26.45-20.729l0.357,0.01c1.986,0.054,4.039,0.109,6.053,0.109c12.037,0,23.237-2.101,24.066-17.072
					c2.395,0.501,4.857,0.755,7.333,0.755c13.127,0,27.867-7.449,29.208-23.805l0.085-1.04l-1.043-0.01
					c-4.332-0.043-8.944-0.062-14.954-0.062c-2.725,0-5.454,0.004-8.185,0.008c-2.737,0.004-5.476,0.008-8.218,0.008
					c-20.274,0-41.829-0.185-62.887-2.399c-8.846-0.93-18.872-2.816-27.51-5.175c-3.742-1.022-7.537-2.5-11.207-3.928
					C580.781,54.681,573.583,51.878,566.125,51.878L566.125,51.878z"/>
			</g>
			<g>
				<path fill="#E2A32C" d="M468.904,142.583c-19.268,0-32.144-6.644-38.278-19.75c-2.788,0.498-5.254,1.87-7.86,3.319
					c-2.895,1.61-5.889,3.275-9.495,3.779c-2.117,0.295-4.172,0.445-6.106,0.445c-13.294,0.001-22.262-7.004-26.661-20.821
					l-0.209,0.005c-1.997,0.052-4.061,0.105-6.053,0.105c-10.944,0-22.713-1.336-24.169-17.15c-2.635,0.503-5.258,0.758-7.803,0.758
					c-15.086,0-25.802-8.466-28.665-22.647l-0.116-0.576l56.044-0.58c7.086-0.771,14.352-1.188,21.378-1.591
					c11.958-0.687,24.323-1.396,36.343-3.886c4.15-0.859,9.295-2.645,14.743-4.535c9.49-3.292,20.246-7.024,29.1-7.024
					c4.275,0,7.714,0.843,10.515,2.578c2.177,1.349,3.706,4.554,5.326,7.947c2.654,5.562,5.662,11.865,12.211,11.866
					c0,0,0.001,0,0.001,0c1.093,0,2.275-0.176,3.514-0.523l0.615-0.172l0.139,63.578l-0.375,0.088
					C493.54,140.024,481.072,142.582,468.904,142.583z"/>
				<path fill="#FFFFFF" d="M471.096,52.919c3.871,0,7.374,0.718,10.26,2.506c5.507,3.412,6.854,19.885,17.792,19.885
					c1.112,0,2.322-0.17,3.647-0.541l0.136,62.554c-9.922,2.327-22.227,4.774-34.026,4.774c-15.969,0-31.014-4.48-37.992-19.803
					c-6.229,0.933-10.876,6.203-17.708,7.156c-2.106,0.294-4.121,0.441-6.039,0.441c-13.257,0-22.018-7.002-26.307-20.83
					c-2.22,0.057-4.441,0.12-6.615,0.12c-11.995,0-22.572-1.909-23.731-17.246c-2.794,0.569-5.558,0.854-8.241,0.854
					c-13.628,0-25.182-7.36-28.19-22.258l55.457-0.574c19.276-2.089,38.696-1.528,57.815-5.487
					C438.776,62.103,457.263,52.921,471.096,52.919 M471.099,51.948v0.971V51.948h-0.003c-8.935,0.001-19.733,3.747-29.259,7.052
					c-5.432,1.885-10.563,3.665-14.681,4.518c-11.986,2.482-24.334,3.191-36.275,3.877c-7.016,0.403-14.271,0.819-21.401,1.59
					l-55.409,0.574l-1.174,0.012l0.232,1.151c1.475,7.308,5.101,13.29,10.484,17.302c5.034,3.751,11.486,5.734,18.658,5.734
					c2.407,0,4.882-0.225,7.372-0.671c1.7,15.721,13.562,17.062,24.6,17.062c1.948,0,3.96-0.051,5.912-0.101
					c4.509,13.81,13.593,20.812,27.011,20.812c1.956,0,4.033-0.151,6.174-0.45c3.695-0.516,6.729-2.203,9.663-3.835
					c2.453-1.365,4.782-2.66,7.347-3.195c6.282,13.065,19.249,19.687,38.555,19.687c12.216,0,24.72-2.565,34.248-4.8l0.751-0.176
					l-0.002-0.771l-0.136-62.554l-0.003-1.278l-1.23,0.345c-1.196,0.335-2.335,0.505-3.385,0.505
					c-6.243,0-9.181-6.157-11.773-11.589c-1.651-3.46-3.21-6.727-5.508-8.151C478.987,52.816,475.465,51.948,471.099,51.948
					L471.099,51.948z"/>
			</g>
			<g>
				<path fill="#E2A32C" d="M473.78,297.852c-17.463-8.999-26.335-22.53-24.981-38.101c1.717-19.744,19.993-39.384,43.456-46.701
					c10.513-3.279,22.443-4.042,33.98-4.779c9.206-0.588,18.724-1.197,27.622-3.063c31.971-6.706,37.991-16.028,37.412-22.667
					c-0.336-3.842-1.94-5.709-4.904-5.709c-4.484,0-11.153,4.093-16.511,7.381c-3.571,2.192-6.392,3.923-8.029,4.178
					c-2.736,0.427-5.387,0.643-7.879,0.644c-9.129,0-15.739-2.899-18.134-7.954c-1.734-3.661-2.075-10.135,6.154-20.19
					c5.358-6.548,16.034-10.303,29.288-10.303c20.604,0,44.208,9.126,47.37,26.039c1.863,9.966-0.339,19.43-6.545,28.128
					c-13.531,18.964-44.435,31.251-67.422,34.643c-3.083,0.455-7.375,0.792-12.345,1.184c-14.909,1.172-35.329,2.778-41.368,9.193
					c-3.682,3.911-4.638,9.2-2.694,14.894c2.607,7.637,9.933,14.248,17.041,15.376l1.584,0.252l-18.546,8.512l-14.297,9.172
					L473.78,297.852z"/>
				<path fill="#FFFFFF" d="M571.253,151.071c20.601,0,43.845,9.344,46.892,25.643c6.916,36.992-44.431,57.904-73.561,62.202
					c-12.454,1.838-45.813,1.832-53.995,10.524c-10.19,10.825,1.913,29.063,14.624,31.082l-17.089,7.843l-14.121,9.054
					c-45.624-23.51-21.832-71.361,18.397-83.907c18.771-5.854,41.39-3.601,61.558-7.831c11.101-2.329,39.045-8.875,37.795-23.184
					c-0.394-4.513-2.474-6.153-5.388-6.153c-7.528-0.001-20.623,10.944-24.614,11.566c-2.744,0.428-5.361,0.637-7.804,0.637
					c-17.001,0-25.699-10.13-11.606-27.352C547.996,154.286,559.17,151.071,571.253,151.071 M571.254,150.1L571.254,150.1
					c-13.402,0-24.214,3.821-29.665,10.482c-8.389,10.251-8.011,16.917-6.217,20.705c2.479,5.232,9.249,8.233,18.574,8.233
					c2.516,0,5.192-0.218,7.954-0.649c1.733-0.27,4.59-2.024,8.207-4.244c5.306-3.257,11.91-7.311,16.257-7.31
					c1.7,0,4.008,0.546,4.421,5.267c0.563,6.443-5.404,15.516-37.027,22.149c-8.864,1.859-18.365,2.467-27.554,3.054
					c-11.566,0.74-23.525,1.504-34.094,4.8c-11.505,3.588-22.217,10.274-30.161,18.826c-7.948,8.556-12.79,18.605-13.633,28.297
					c-1.372,15.78,7.592,29.479,25.242,38.574l0.498,0.256l0.471-0.302l14.064-9.018l17.027-7.814l2.915-1.338l-3.168-0.503
					c-6.943-1.103-14.104-7.574-16.657-15.053c-1.883-5.516-0.964-10.631,2.588-14.405c5.911-6.279,26.223-7.876,41.054-9.043
					c4.978-0.391,9.278-0.73,12.377-1.187c23.086-3.406,54.133-15.762,67.747-34.842c6.286-8.81,8.516-18.398,6.627-28.499
					c-1.477-7.901-7.489-14.687-17.384-19.624C593.038,152.583,581.935,150.1,571.254,150.1L571.254,150.1z"/>
			</g>
			<g>
				<path fill="#E2A32C" d="M479.833,363.604c-13.694-8.45-20.806-18.761-20.567-29.819c0.287-13.261,10.884-26.698,29.077-36.867
					c7.241-4.047,14.883-6.563,22.273-8.997c5.702-1.878,11.598-3.819,17.127-6.428c8.518-4.019,17.972-11.396,18.96-20.049
					c0.595-5.208-1.995-10.131-7.696-14.63l-1.034-0.816l1.316-0.05c13.304-0.503,25.374-4.08,38.646-8.351l0.375-0.121l0.195,0.343
					c7.389,12.966,9.247,24.74,5.522,34.995c-5.077,13.976-19.807,25.082-46.356,34.952c-2.075,0.771-4.977,1.632-8.336,2.628
					c-12.597,3.736-31.634,9.382-33.31,18.347c-1.942,10.387,2.584,13.676,10.129,18.184c0.228,0.136,0.489,0.153,0.765,0.171
					c0.37,0.024,0.83,0.054,1.133,0.45c0.326,0.427,0.35,1.134,0.083,2.441l-0.069,0.34l-0.344,0.044
					c-8.793,1.134-18.751,5.941-27.322,13.19l-0.269,0.228L479.833,363.604z"/>
				<path fill="#FFFFFF" d="M578.084,238.06c21.711,38.096-8.602,57.362-40.582,69.251c-9.963,3.704-39.772,9.672-41.954,21.341
					c-1.968,10.528,2.619,14.067,10.357,18.69c1.099,0.657,2.404-0.633,1.755,2.548c-9.919,1.279-19.914,6.824-27.573,13.301
					c-34.14-21.066-21.179-49.265,8.491-65.849c12.833-7.173,26.712-9.437,39.371-15.409c15.163-7.153,28.318-22.114,11.358-35.498
					C552.888,245.92,565.326,242.165,578.084,238.06 M578.537,236.894l-0.75,0.242c-13.238,4.26-25.274,7.828-38.516,8.328
					l-2.634,0.1l2.069,1.633c5.56,4.388,8.088,9.163,7.514,14.194c-0.965,8.455-10.285,15.702-18.685,19.665
					c-5.503,2.596-11.384,4.532-17.072,6.405c-7.412,2.441-15.077,4.965-22.359,9.035c-18.346,10.255-29.035,23.843-29.325,37.28
					c-0.243,11.24,6.949,21.698,20.797,30.243l0.599,0.37l0.538-0.455c8.501-7.19,18.368-11.957,27.071-13.079l0.688-0.089
					l0.139-0.68c0.252-1.234,0.319-2.189-0.174-2.833c-0.437-0.572-1.069-0.613-1.487-0.64c-0.226-0.015-0.42-0.027-0.548-0.103
					c-7.365-4.4-11.783-7.608-9.901-17.678c1.621-8.673,20.487-14.268,32.97-17.97c3.368-0.999,6.277-1.862,8.368-2.639
					c26.693-9.923,41.514-21.121,46.643-35.241c3.776-10.395,1.907-22.306-5.556-35.401L578.537,236.894L578.537,236.894z"/>
			</g>
			<g>
				<path fill="#E2A32C" d="M508.403,203.083l-0.015-0.47c-0.604-19.633-0.24-39.82,0.113-59.343
					c0.382-21.163,0.777-43.046-0.062-64.265c-0.096-2.413-0.409-4.853-0.741-7.436c-0.584-4.542-1.188-9.234-0.551-13.912
					c-14.256-6.85-17.103-19.369-14.991-28.852c2.661-11.947,12.648-20.291,24.286-20.291c3.753,0,7.628,0.836,11.517,2.485
					c9.005,3.818,14.572,12.654,14.526,23.062c-0.045,10.483-5.891,19.704-14.921,23.586l-1.166,145.435H508.403z"/>
				<path fill="#FFFFFF" d="M516.442,9c3.537,0,7.338,0.755,11.327,2.446c19.47,8.255,18.694,37.859-0.688,45.878l-1.165,145.272
					h-17.043c-1.259-40.906,1.664-82.807,0.05-123.611c-0.272-6.877-2.342-14.293-1.245-21.613
					C480.462,44.614,492.162,9.002,516.442,9 M516.444,8.029V9V8.029h-0.002c-11.868,0.001-22.049,8.502-24.76,20.673
					c-2.137,9.594,0.701,22.235,14.939,29.239c-0.57,4.623,0.022,9.229,0.595,13.69c0.331,2.572,0.643,5.001,0.738,7.393
					c0.839,21.205,0.444,43.082,0.062,64.239c-0.353,19.528-0.717,39.72-0.113,59.364l0.029,0.941h0.941h17.043h0.963l0.008-0.963
					l1.16-144.639c9.042-4.03,14.878-13.338,14.923-23.902c0.046-10.607-5.633-19.616-14.822-23.512
					C524.199,8.878,520.262,8.029,516.444,8.029L516.444,8.029z"/>
			</g>
			<g>
				<path fill="#E2A32C" d="M484.754,413.5c-6.764-3.351-10.787-9.113-11.635-16.663c-1.174-10.452,4.275-23.171,12.956-30.245
					c7.519-6.125,16.892-9.088,25.956-11.953c7.82-2.472,15.207-4.807,21.323-8.997c5.482-3.755,8.072-7.637,7.696-11.538
					c-0.471-4.9-5.81-9.952-14.679-13.917l-1.425,23.777l-15.34,4.13v-25.326l48.699-16.831l0.21,0.175
					c14.107,11.76,18.292,29.354,10.663,44.825c-6.788,13.761-22.892,18.728-37.101,23.111c-4.855,1.497-9.44,2.912-13.578,4.607
					l-1.224,0.5c-6.609,2.691-13.442,5.474-15.127,10.539c-0.957,2.877-0.218,6.277,2.26,10.394l0.238,0.396l-19.641,13.139
					L484.754,413.5z"/>
				<path fill="#FFFFFF" d="M558.204,306.487c13.206,11.008,18.411,28.275,10.538,44.236c-8.918,18.08-33.745,20.649-50.427,27.483
					c-10.676,4.374-22.514,8.523-14.323,22.132l-19.023,12.725c-18.543-9.187-12.212-34.994,1.413-46.095
					c13.775-11.223,33.803-11.716,47.246-20.925c15.721-10.769,5.417-20.899-7.7-26.581l-1.446,24.125l-14.391,3.874v-24.347
					L558.204,306.487 M558.405,305.391l-0.518,0.179l-48.113,16.628l-0.654,0.226v0.692v24.347v1.267l1.223-0.329l14.391-3.874
					l0.675-0.182l0.042-0.698l1.362-22.723c8.322,3.844,13.311,8.625,13.754,13.23c0.357,3.711-2.162,7.443-7.488,11.091
					c-6.057,4.149-13.41,6.473-21.195,8.934c-9.108,2.879-18.525,5.855-26.116,12.04c-8.8,7.17-14.323,20.07-13.132,30.675
					c0.867,7.722,4.983,13.615,11.901,17.043l0.504,0.25l0.467-0.312l19.023-12.725l0.769-0.515l-0.477-0.793
					c-2.4-3.988-3.125-7.256-2.216-9.99c1.614-4.853,8.342-7.593,14.849-10.242l1.226-0.5c4.117-1.687,8.693-3.098,13.537-4.592
					c14.302-4.411,30.513-9.411,37.393-23.36c7.733-15.678,3.499-33.503-10.787-45.412L558.405,305.391L558.405,305.391z"/>
			</g>
			<g>
				<path fill="#E2A32C" d="M456.196,228.413c-16.322-4.068-36.673-20.906-40.956-39.489c-2.491-10.809,0.955-20.511,9.965-28.057
					c7.796-6.53,23.933-11.09,39.24-11.09c12.011,0,21.425,2.86,26.509,8.054c7.187,7.341,9.892,15.495,7.236,21.812
					c-2.376,5.653-8.794,8.895-17.606,8.896c-0.001,0-0.002,0-0.003,0c-1.238,0-2.538-0.063-3.865-0.188
					c-6.005-0.564-10.282-3.685-14.417-6.702c-3.826-2.792-7.44-5.429-11.937-5.429c-0.161,0-0.323,0.003-0.487,0.01
					c-2.975,0.124-5.083,1.411-6.095,3.723c-1.383,3.158-0.482,7.693,2.143,10.786c6.489,7.645,28.92,11.977,40.972,14.304
					c1.405,0.271,2.687,0.519,3.809,0.745l1.52,0.306l-18.762,8.117l-17.023,14.262L456.196,228.413z"/>
				<path fill="#FFFFFF" d="M464.445,150.262c10.729,0,20.703,2.331,26.162,7.907c13.796,14.092,9.602,29.883-10.024,29.883
					c-1.216,0-2.489-0.06-3.823-0.186c-11.563-1.086-16.941-12.133-26.399-12.133c-0.168,0-0.337,0.003-0.508,0.011
					c-8.679,0.36-8.715,10.109-4.303,15.307c7.342,8.65,33.98,12.981,45.055,15.211l-17.405,7.53l-16.888,14.149
					c-25.885-6.451-58.526-43.478-30.796-66.703C433.288,154.73,449.59,150.262,464.445,150.262 M464.445,149.291
					c-15.412,0-31.676,4.607-39.552,11.203c-9.159,7.671-12.661,17.539-10.126,28.538c4.322,18.756,24.85,35.748,41.311,39.851
					l0.479,0.119l0.379-0.317l16.78-14.058l17.275-7.474l2.845-1.231l-3.039-0.612c-1.123-0.226-2.405-0.474-3.811-0.745
					c-11.993-2.316-34.316-6.627-40.695-14.142c-2.47-2.91-3.359-7.328-2.068-10.277c0.933-2.13,2.894-3.317,5.671-3.433
					c0.157-0.007,0.313-0.01,0.468-0.01c4.338,0,7.89,2.592,11.65,5.336c3.993,2.914,8.52,6.217,14.658,6.793
					c1.342,0.126,2.659,0.19,3.914,0.19c9.017,0,15.597-3.35,18.053-9.192c2.734-6.504-0.008-14.855-7.336-22.341
					C486.125,152.203,476.587,149.291,464.445,149.291L464.445,149.291z"/>
			</g>
			<g>
				<path fill="#E2A32C" d="M499.292,454.83c-5.415,0.001-15.555-13.488-16.832-18.605c-4.353-17.447,14.219-25.615,29.142-32.178
					c5.258-2.312,10.225-4.497,13.679-6.832c3.143-2.124,4.734-4.149,4.866-6.191c0.123-1.903-1.007-3.942-3.451-6.22
					c-0.289,0.851-0.295,1.748-0.301,2.688c-0.009,1.472-0.02,3.14-1.208,4.783c-0.797,1.104-9.114,6.352-13.654,6.352
					c-2.024,0-2.713-1.051-2.936-1.933l-0.022-0.087l1.058-8.737l44.443-15.336l0.172,0.43c8.552,21.399,2.143,40.802-16.328,49.431
					c-2.725,1.272-8.208,2.702-14.013,4.216c-7.333,1.912-15.645,4.08-17.115,5.765c-1.423,1.63-1.272,5.169-1.113,8.915
					c0.257,6.055,0.549,12.917-6.083,13.526C499.497,454.826,499.395,454.83,499.292,454.83z"/>
				<path fill="#FFFFFF" d="M553.798,373.143c7.657,19.159,3.571,39.63-16.083,48.811c-6.331,2.957-28.565,6.98-31.288,10.102
					c-3.972,4.552,3.247,21.347-6.875,22.277c-0.085,0.008-0.172,0.012-0.26,0.012c-5.169,0-15.127-13.296-16.36-18.237
					c-5.752-23.05,29.211-29.424,42.621-38.49c6.326-4.277,6.873-8.414,0.966-13.629c-1.325,2.511,0.265,5.248-1.725,8.002
					c-0.764,1.057-8.982,6.151-13.261,6.151c-1.263,0-2.182-0.444-2.465-1.566l1.011-8.346L553.798,373.143 M554.356,371.923
					l-0.875,0.302l-43.719,15.086l-0.574,0.198l-0.073,0.603l-1.011,8.346l-0.022,0.179l0.044,0.175
					c0.217,0.859,0.947,2.299,3.407,2.299c4.578,0,13.047-5.168,14.048-6.553c1.279-1.769,1.29-3.52,1.299-5.065
					c0.004-0.625,0.008-1.204,0.089-1.75c1.912,1.932,2.796,3.657,2.693,5.249c-0.121,1.882-1.643,3.786-4.653,5.82
					c-3.418,2.311-8.365,4.486-13.603,6.79c-15.09,6.636-33.869,14.896-29.417,32.739c1.185,4.749,11.268,18.973,17.302,18.973
					c0.118,0,0.235-0.005,0.349-0.016c7.092-0.651,6.776-8.07,6.523-14.03c-0.148-3.486-0.301-7.091,0.994-8.575
					c1.372-1.573,9.966-3.814,16.872-5.614c5.827-1.519,11.331-2.955,14.096-4.246c9.549-4.461,16.052-11.817,18.804-21.272
					c2.519-8.655,1.727-18.875-2.231-28.779L554.356,371.923L554.356,371.923z"/>
			</g>
			<g>
				<path fill="#E2A32C" d="M475.307,480.751c-0.385,0-0.651-0.077-0.836-0.243l-0.207-0.185l0.054-0.271
					c0.811-4.118,5.287-7.215,8.883-9.704c0.662-0.458,1.296-0.897,1.874-1.319c5.251-3.836,11.169-7.196,16.892-10.446
					c5.266-2.99,10.71-6.081,15.525-9.492c0.483-0.342,0.983-0.685,1.489-1.031c4.002-2.74,8.139-5.571,7.716-10.726l-1.66-0.418
					c-1.515,4.129-5.736,6.567-9.822,8.928c-1.76,1.017-3.423,1.978-4.817,3.043l-0.951,0.727l0.176-1.184
					c0.151-1.016,0.06-2.594-0.036-4.265c-0.202-3.51-0.431-7.489,1.4-8.863c1.1-0.826,5.827-2.056,13.48-3.985
					c6.042-1.522,12.29-3.097,14.967-4.246c2.224-0.954,4.168-2.164,6.048-3.333c2.174-1.352,4.422-2.75,7.032-3.689l0.431-0.155
					l0.18,0.421c10.136,23.694-14.348,34.544-32.225,42.466c-1.705,0.755-3.355,1.487-4.916,2.202
					C512.48,466.59,480.226,480.751,475.307,480.751z"/>
				<path fill="#FFFFFF" d="M552.68,420.505c10.895,25.47-18.943,35.805-36.897,44.036c-4.613,2.115-35.8,15.724-40.476,15.724
					c-0.249,0-0.423-0.039-0.513-0.119c0.918-4.66,6.887-8.037,10.566-10.725c10.082-7.364,22.367-12.818,32.412-19.934
					c4.375-3.1,10.121-6.184,9.374-12.54l-2.424-0.611c-1.872,6.003-9.856,8.526-14.619,12.165
					c0.471-3.169-1.269-10.977,1.176-12.811c2.155-1.617,22.8-5.792,28.347-8.173C544.492,425.429,547.902,422.226,552.68,420.505
					 M553.212,419.282l-0.861,0.31c-2.658,0.957-4.928,2.368-7.123,3.734c-1.865,1.16-3.794,2.359-5.984,3.3
					c-2.642,1.134-8.871,2.704-14.895,4.222c-7.685,1.937-12.456,3.169-13.652,4.067c-2.039,1.53-1.813,5.47-1.594,9.28
					c0.095,1.645,0.184,3.199,0.04,4.165l-0.352,2.367l1.901-1.453c1.37-1.046,3.019-1.999,4.765-3.008
					c4.029-2.328,8.186-4.729,9.876-8.773l0.9,0.227c0.183,4.663-3.734,7.344-7.528,9.941c-0.508,0.348-1.01,0.691-1.495,1.035
					c-4.796,3.398-10.231,6.483-15.486,9.468c-5.734,3.256-11.664,6.623-16.937,10.475c-0.574,0.419-1.205,0.856-1.864,1.312
					c-3.668,2.539-8.234,5.698-9.083,10.009l-0.107,0.543l0.413,0.369c0.276,0.246,0.655,0.366,1.16,0.366
					c5.41,0,40.536-15.655,40.881-15.813c1.556-0.714,3.186-1.436,4.91-2.2c18.062-8.004,42.798-18.966,32.474-43.101
					L553.212,419.282L553.212,419.282z"/>
			</g>
			<g>
				<path fill="#E2A32C" d="M517.723,519.318c-2.606,0-4.914-2.832-5.612-6.886c-1.164-6.755-2.159-19.02-2.494-25.571
					c-0.209-4.102-0.079-8.311,0.047-12.381c0.028-0.912,0.089-3.038,0.089-3.038l28.925-12.447l0.167,0.048
					c3.388,0.974,20.599,13.13,21.917,18.26c0.262,1.018-0.087,1.633-0.425,1.97c-0.27,0.269-0.707,0.394-1.376,0.394
					c-5.501,0-27.744-8.933-32.604-10.978l-3.882,47.272l-0.068,0.104C520.632,518.754,518.88,519.318,517.723,519.318z"/>
				<path fill="#FFFFFF" d="M538.712,459.51c3.536,1.016,24.716,16.002,21.284,19.419c-0.174,0.173-0.528,0.253-1.034,0.253
					c-5.515,0-29.051-9.472-33.033-11.202l-3.927,47.819c-1.412,2.138-2.903,3.034-4.279,3.034c-2.429,0-4.498-2.794-5.133-6.483
					c-1.141-6.624-2.135-18.631-2.487-25.513c-0.255-4.99-0.005-10.091,0.129-15.07L538.712,459.51 M538.647,458.482l-0.319,0.137
					l-28.481,12.256l-0.57,0.245l-0.017,0.62c-0.024,0.905-0.053,1.815-0.081,2.727c-0.127,4.079-0.258,8.298-0.047,12.419
					c0.335,6.563,1.332,18.853,2.5,25.629c0.739,4.292,3.244,7.289,6.09,7.289c1.276,0,3.195-0.602,5.089-3.47l0.137-0.208
					l0.02-0.248l3.817-46.483c5.91,2.452,26.809,10.758,32.175,10.758c0.507,0,1.237-0.055,1.719-0.535
					c0.428-0.426,0.872-1.195,0.553-2.435c-1.432-5.569-19.056-17.686-22.253-18.605L538.647,458.482L538.647,458.482z"/>
			</g>
			<g>
				<path fill="#E2A32C" d="M509.624,280.583c-1.558-9.731-1.8-20.326-0.702-30.639l0.04-0.376l17.44-2.489v27.054l-16.68,7.062
					L509.624,280.583z"/>
				<path fill="#FFFFFF" d="M525.916,247.639v26.173l-15.814,6.695c-1.602-10.011-1.771-20.445-0.699-30.511L525.916,247.639
					 M526.887,246.52l-1.108,0.158l-16.512,2.357l-0.748,0.107l-0.08,0.752c-1.103,10.356-0.859,20.995,0.705,30.768l0.196,1.224
					l1.141-0.483l15.814-6.695l0.592-0.251v-0.643v-26.173V246.52L526.887,246.52z"/>
			</g>
		</g>
		<g>
			<g>
				<path fill="#E2A32C" d="M1645.744,629.12c-2.749-3.061-6.218-6.651-10.052-10.617c-20.847-21.569-55.739-57.67-42.256-80.119
					c5.98-9.957,13.973-15.006,23.756-15.006c13.65,0,26.176,9.507,26.301,9.603l2.363,1.816l2.362-1.816
					c0.121-0.093,12.722-9.603,26.301-9.603c9.783,0,17.776,5.049,23.756,15.006c12.901,21.481-18.611,54.611-39.462,76.534
					C1653.737,620.253,1649.183,625.041,1645.744,629.12z"/>
			</g>
			<g>
				<g>
					<path fill="#FFFFFF" d="M1675.351,564.207v13.179c0,3.181-2.58,5.761-5.766,5.761h-11.368v11.373
						c0,3.186-2.585,5.766-5.766,5.766h-13.179c-3.181,0-5.761-2.581-5.761-5.766v-11.373h-11.373c-3.186,0-5.766-2.58-5.766-5.761
						v-13.179c0-3.181,2.58-5.761,5.766-5.761h11.373v-11.373c0-3.186,2.581-5.766,5.761-5.766h13.179
						c3.181,0,5.766,2.581,5.766,5.766v11.373h11.368C1672.771,558.446,1675.351,561.027,1675.351,564.207z"/>
				</g>
			</g>
		</g>
	</g>
</g>
</svg>
